<svg xmlns="http://www.w3.org/2000/svg" width="658.0" height="109.9" viewBox="-4 -4 658.0 109.9">
  <rect x="-4" y="-4" width="658.0" height="109.9" fill="white"/>
  <rect x="-4.0" y="-4.0" width="218.0" height="109.9" rx="3" fill="#f0f0f0" stroke="#ccc" stroke-width="0.5"/>
  <text x="50.0" y="11.0" font-size="10" text-anchor="middle" font-family="monospace">222040440</text>
  <g transform="translate(5.00 19.00) rotate(180 45.00 38.97)">
    <polygon points="0.00,0.00 30.00,0.00 15.00,25.98" fill="#2ecc71" stroke="white" stroke-width="0.5"/>
    <text x="15.0" y="12.7" font-size="8" text-anchor="middle" fill="white" font-family="monospace" transform="rotate(180 15.00 8.66)">0</text>
    <polygon points="30.00,0.00 60.00,0.00 45.00,25.98" fill="#5bacd8" stroke="white" stroke-width="0.5"/>
    <text x="45.0" y="12.7" font-size="8" text-anchor="middle" fill="white" font-family="monospace" transform="rotate(180 45.00 8.66)">4</text>
    <polygon points="60.00,0.00 90.00,0.00 75.00,25.98" fill="#5bacd8" stroke="white" stroke-width="0.5"/>
    <text x="75.0" y="12.7" font-size="8" text-anchor="middle" fill="white" font-family="monospace" transform="rotate(180 75.00 8.66)">4</text>
    <polygon points="15.00,25.98 45.00,25.98 30.00,0.00" fill="#2ecc71" stroke="white" stroke-width="0.5"/>
    <text x="30.0" y="21.3" font-size="8" text-anchor="middle" fill="white" font-family="monospace" transform="rotate(180 30.00 17.32)">0</text>
    <polygon points="45.00,25.98 75.00,25.98 60.00,0.00" fill="#5bacd8" stroke="white" stroke-width="0.5"/>
    <text x="60.0" y="21.3" font-size="8" text-anchor="middle" fill="white" font-family="monospace" transform="rotate(180 60.00 17.32)">4</text>
    <polygon points="15.00,25.98 45.00,25.98 30.00,51.96" fill="#2ecc71" stroke="white" stroke-width="0.5"/>
    <text x="30.0" y="38.6" font-size="8" text-anchor="middle" fill="white" font-family="monospace" transform="rotate(180 30.00 34.64)">0</text>
    <polygon points="45.00,25.98 75.00,25.98 60.00,51.96" fill="#fb9837" stroke="white" stroke-width="0.5"/>
    <text x="60.0" y="38.6" font-size="8" text-anchor="middle" fill="white" font-family="monospace" transform="rotate(180 60.00 34.64)">2</text>
    <polygon points="30.00,51.96 60.00,51.96 45.00,25.98" fill="#fb9837" stroke="white" stroke-width="0.5"/>
    <text x="45.0" y="47.3" font-size="8" text-anchor="middle" fill="white" font-family="monospace" transform="rotate(180 45.00 43.30)">2</text>
    <polygon points="30.00,51.96 60.00,51.96 45.00,77.94" fill="#fb9837" stroke="white" stroke-width="0.5"/>
    <text x="45.0" y="64.6" font-size="8" text-anchor="middle" fill="white" font-family="monospace" transform="rotate(180 45.00 60.62)">2</text>
  </g>
  <text x="160.0" y="11.0" font-size="10" text-anchor="middle" font-family="monospace">002024244</text>
  <g transform="translate(115.00 19.00)">
    <polygon points="0.00,0.00 30.00,0.00 15.00,25.98" fill="#5bacd8" stroke="white" stroke-width="0.5"/>
    <text x="15.0" y="12.7" font-size="8" text-anchor="middle" fill="white" font-family="monospace">4</text>
    <polygon points="30.00,0.00 60.00,0.00 45.00,25.98" fill="#5bacd8" stroke="white" stroke-width="0.5"/>
    <text x="45.0" y="12.7" font-size="8" text-anchor="middle" fill="white" font-family="monospace">4</text>
    <polygon points="60.00,0.00 90.00,0.00 75.00,25.98" fill="#fb9837" stroke="white" stroke-width="0.5"/>
    <text x="75.0" y="12.7" font-size="8" text-anchor="middle" fill="white" font-family="monospace">2</text>
    <polygon points="15.00,25.98 45.00,25.98 30.00,0.00" fill="#5bacd8" stroke="white" stroke-width="0.5"/>
    <text x="30.0" y="21.3" font-size="8" text-anchor="middle" fill="white" font-family="monospace">4</text>
    <polygon points="45.00,25.98 75.00,25.98 60.00,0.00" fill="#fb9837" stroke="white" stroke-width="0.5"/>
    <text x="60.0" y="21.3" font-size="8" text-anchor="middle" fill="white" font-family="monospace">2</text>
    <polygon points="15.00,25.98 45.00,25.98 30.00,51.96" fill="#2ecc71" stroke="white" stroke-width="0.5"/>
    <text x="30.0" y="38.6" font-size="8" text-anchor="middle" fill="white" font-family="monospace">0</text>
    <polygon points="45.00,25.98 75.00,25.98 60.00,51.96" fill="#fb9837" stroke="white" stroke-width="0.5"/>
    <text x="60.0" y="38.6" font-size="8" text-anchor="middle" fill="white" font-family="monospace">2</text>
    <polygon points="30.00,51.96 60.00,51.96 45.00,25.98" fill="#2ecc71" stroke="white" stroke-width="0.5"/>
    <text x="45.0" y="47.3" font-size="8" text-anchor="middle" fill="white" font-family="monospace">0</text>
    <polygon points="30.00,51.96 60.00,51.96 45.00,77.94" fill="#2ecc71" stroke="white" stroke-width="0.5"/>
    <text x="45.0" y="64.6" font-size="8" text-anchor="middle" fill="white" font-family="monospace">0</text>
  </g>
</svg>