<svg xmlns="http://www.w3.org/2000/svg" width="1198.0" height="109.9" viewBox="-4 -4 1198.0 109.9">
  <rect x="-4" y="-4" width="1198.0" height="109.9" fill="white"/>
  <rect x="-4.0" y="-4.0" width="198.0" height="109.9" rx="3" fill="#f0f0f0" stroke="#ccc" stroke-width="0.5"/>
  <text x="95.0" y="11.0" font-size="10" text-anchor="middle" font-family="monospace">111011001100010000100000000</text>
  <g transform="translate(5.00 19.00) rotate(180 90.00 38.97)">
    <polygon points="0.00,0.00 30.00,0.00 15.00,25.98" fill="#2ecc71" stroke="white" stroke-width="0.5"/>
    <text x="15.0" y="12.7" font-size="8" text-anchor="middle" fill="white" font-family="monospace" transform="rotate(180 15.00 8.66)">0</text>
    <polygon points="30.00,0.00 60.00,0.00 45.00,25.98" fill="#2ecc71" stroke="white" stroke-width="0.5"/>
    <text x="45.0" y="12.7" font-size="8" text-anchor="middle" fill="white" font-family="monospace" transform="rotate(180 45.00 8.66)">0</text>
    <polygon points="60.00,0.00 90.00,0.00 75.00,25.98" fill="#2ecc71" stroke="white" stroke-width="0.5"/>
    <text x="75.0" y="12.7" font-size="8" text-anchor="middle" fill="white" font-family="monospace" transform="rotate(180 75.00 8.66)">0</text>
    <polygon points="90.00,0.00 120.00,0.00 105.00,25.98" fill="#2ecc71" stroke="white" stroke-width="0.5"/>
    <text x="105.0" y="12.7" font-size="8" text-anchor="middle" fill="white" font-family="monospace" transform="rotate(180 105.00 8.66)">0</text>
    <polygon points="120.00,0.00 150.00,0.00 135.00,25.98" fill="#2ecc71" stroke="white" stroke-width="0.5"/>
    <text x="135.0" y="12.7" font-size="8" text-anchor="middle" fill="white" font-family="monospace" transform="rotate(180 135.00 8.66)">0</text>
    <polygon points="150.00,0.00 180.00,0.00 165.00,25.98" fill="#2ecc71" stroke="white" stroke-width="0.5"/>
    <text x="165.0" y="12.7" font-size="8" text-anchor="middle" fill="white" font-family="monospace" transform="rotate(180 165.00 8.66)">0</text>
    <polygon points="15.00,25.98 45.00,25.98 30.00,0.00" fill="#2ecc71" stroke="white" stroke-width="0.5"/>
    <text x="30.0" y="21.3" font-size="8" text-anchor="middle" fill="white" font-family="monospace" transform="rotate(180 30.00 17.32)">0</text>
    <polygon points="45.00,25.98 75.00,25.98 60.00,0.00" fill="#2ecc71" stroke="white" stroke-width="0.5"/>
    <text x="60.0" y="21.3" font-size="8" text-anchor="middle" fill="white" font-family="monospace" transform="rotate(180 60.00 17.32)">0</text>
    <polygon points="75.00,25.98 105.00,25.98 90.00,0.00" fill="#3498db" stroke="white" stroke-width="0.5"/>
    <text x="90.0" y="21.3" font-size="8" text-anchor="middle" fill="white" font-family="monospace" transform="rotate(180 90.00 17.32)">1</text>
    <polygon points="105.00,25.98 135.00,25.98 120.00,0.00" fill="#2ecc71" stroke="white" stroke-width="0.5"/>
    <text x="120.0" y="21.3" font-size="8" text-anchor="middle" fill="white" font-family="monospace" transform="rotate(180 120.00 17.32)">0</text>
    <polygon points="135.00,25.98 165.00,25.98 150.00,0.00" fill="#2ecc71" stroke="white" stroke-width="0.5"/>
    <text x="150.0" y="21.3" font-size="8" text-anchor="middle" fill="white" font-family="monospace" transform="rotate(180 150.00 17.32)">0</text>
    <polygon points="15.00,25.98 45.00,25.98 30.00,51.96" fill="#2ecc71" stroke="white" stroke-width="0.5"/>
    <text x="30.0" y="38.6" font-size="8" text-anchor="middle" fill="white" font-family="monospace" transform="rotate(180 30.00 34.64)">0</text>
    <polygon points="45.00,25.98 75.00,25.98 60.00,51.96" fill="#2ecc71" stroke="white" stroke-width="0.5"/>
    <text x="60.0" y="38.6" font-size="8" text-anchor="middle" fill="white" font-family="monospace" transform="rotate(180 60.00 34.64)">0</text>
    <polygon points="75.00,25.98 105.00,25.98 90.00,51.96" fill="#3498db" stroke="white" stroke-width="0.5"/>
    <text x="90.0" y="38.6" font-size="8" text-anchor="middle" fill="white" font-family="monospace" transform="rotate(180 90.00 34.64)">1</text>
    <polygon points="105.00,25.98 135.00,25.98 120.00,51.96" fill="#2ecc71" stroke="white" stroke-width="0.5"/>
    <text x="120.0" y="38.6" font-size="8" text-anchor="middle" fill="white" font-family="monospace" transform="rotate(180 120.00 34.64)">0</text>
    <polygon points="135.00,25.98 165.00,25.98 150.00,51.96" fill="#2ecc71" stroke="white" stroke-width="0.5"/>
    <text x="150.0" y="38.6" font-size="8" text-anchor="middle" fill="white" font-family="monospace" transform="rotate(180 150.00 34.64)">0</text>
    <polygon points="30.00,51.96 60.00,51.96 45.00,25.98" fill="#2ecc71" stroke="white" stroke-width="0.5"/>
    <text x="45.0" y="47.3" font-size="8" text-anchor="middle" fill="white" font-family="monospace" transform="rotate(180 45.00 43.30)">0</text>
    <polygon points="60.00,51.96 90.00,51.96 75.00,25.98" fill="#3498db" stroke="white" stroke-width="0.5"/>
    <text x="75.0" y="47.3" font-size="8" text-anchor="middle" fill="white" font-family="monospace" transform="rotate(180 75.00 43.30)">1</text>
    <polygon points="90.00,51.96 120.00,51.96 105.00,25.98" fill="#3498db" stroke="white" stroke-width="0.5"/>
    <text x="105.0" y="47.3" font-size="8" text-anchor="middle" fill="white" font-family="monospace" transform="rotate(180 105.00 43.30)">1</text>
    <polygon points="120.00,51.96 150.00,51.96 135.00,25.98" fill="#2ecc71" stroke="white" stroke-width="0.5"/>
    <text x="135.0" y="47.3" font-size="8" text-anchor="middle" fill="white" font-family="monospace" transform="rotate(180 135.00 43.30)">0</text>
    <polygon points="30.00,51.96 60.00,51.96 45.00,77.94" fill="#2ecc71" stroke="white" stroke-width="0.5"/>
    <text x="45.0" y="64.6" font-size="8" text-anchor="middle" fill="white" font-family="monospace" transform="rotate(180 45.00 60.62)">0</text>
    <polygon points="60.00,51.96 90.00,51.96 75.00,77.94" fill="#3498db" stroke="white" stroke-width="0.5"/>
    <text x="75.0" y="64.6" font-size="8" text-anchor="middle" fill="white" font-family="monospace" transform="rotate(180 75.00 60.62)">1</text>
    <polygon points="90.00,51.96 120.00,51.96 105.00,77.94" fill="#3498db" stroke="white" stroke-width="0.5"/>
    <text x="105.0" y="64.6" font-size="8" text-anchor="middle" fill="white" font-family="monospace" transform="rotate(180 105.00 60.62)">1</text>
    <polygon points="120.00,51.96 150.00,51.96 135.00,77.94" fill="#2ecc71" stroke="white" stroke-width="0.5"/>
    <text x="135.0" y="64.6" font-size="8" text-anchor="middle" fill="white" font-family="monospace" transform="rotate(180 135.00 60.62)">0</text>
    <polygon points="45.00,77.94 75.00,77.94 60.00,51.96" fill="#3498db" stroke="white" stroke-width="0.5"/>
    <text x="60.0" y="73.3" font-size="8" text-anchor="middle" fill="white" font-family="monospace" transform="rotate(180 60.00 69.28)">1</text>
    <polygon points="75.00,77.94 105.00,77.94 90.00,51.96" fill="#3498db" stroke="white" stroke-width="0.5"/>
    <text x="90.0" y="73.3" font-size="8" text-anchor="middle" fill="white" font-family="monospace" transform="rotate(180 90.00 69.28)">1</text>
    <polygon points="105.00,77.94 135.00,77.94 120.00,51.96" fill="#3498db" stroke="white" stroke-width="0.5"/>
    <text x="120.0" y="73.3" font-size="8" text-anchor="middle" fill="white" font-family="monospace" transform="rotate(180 120.00 69.28)">1</text>
  </g>
</svg>